<svg width="505" height="95" viewBox="0 0 505 95" fill="none" xmlns="http://www.w3.org/2000/svg">
<path d="M135.88 9.17188V86.4458" stroke="black" stroke-width="7"/>
<path d="M132.062 9.98828C158.641 18.144 196.334 37.7319 134.472 50.8377" stroke="#FA0000" stroke-width="5"/>
<path d="M191.949 9.72656V43.9255" stroke="black" stroke-width="7"/>
<path d="M191.949 62.25V89.1206" stroke="black" stroke-width="7"/>
<path d="M206.506 44.2736C204.667 43.8353 202.389 43.9408 199.912 43.9408C193.65 43.9408 187.023 43.8161 181.372 44.5694C177.757 45.0512 178.273 44.0914 177.482 45.0722C177.022 45.6423 174.378 48.4912 175.477 48.9323C178.317 50.0723 179.006 53.0571 193.241 51.973C196.692 52.7953 189.294 52.1816 193.241 52.887C199.933 54.0831 209.731 55.6309 209.731 57.4113C209.731 58.3635 202.666 60.5647 202.666 62.0671C199.347 62.4798 181.126 62.0671 177.482 62.0671" stroke="#F2A341" stroke-width="2" strokeLinecap="round"="round"/>
<path d="M208.786 43.9297C210.794 44.055 209.04 46.3226 208.635 46.6439C206.273 48.5174 201.505 49.9181 194.589 50.7812C186.477 51.7935 179.995 53.2941 176.465 55.4273C171.56 58.3915 181.775 62.2505 194.513 62.2505" stroke="#F2A341" stroke-width="2"strokeLinecap="round"/>
<path d="M234.629 50.1803V12.6719H252.256V78.9368H268.413" stroke="#F28B0C" stroke-width="7"/>
<path d="M233.894 9.54297V86.4353" stroke="black" stroke-width="10"/>
<path d="M267.312 7.04688V83.9392" stroke="black" stroke-width="10"/>
<path d="M4 9.41406C30.0491 29.5771 66.5178 73.6837 4 88.8059" stroke="#FA0000" stroke-width="5"/>
<path d="M4 9.41406V88.8059" stroke="black" stroke-width="7"/>
<path d="M430.178 7.06641V83.5858" stroke="black" stroke-width="7"/>
<path d="M426.36 7.87109C452.939 15.9472 490.632 35.3438 428.77 48.3217" stroke="#FA0000" stroke-width="5"/>
<path d="M486.217 2V40.332" stroke="black" stroke-width="7"/>
<path d="M486.217 60.8711V90.9891" stroke="black" stroke-width="7"/>
<path d="M500.775 40.7214C498.936 40.2301 496.659 40.3484 494.181 40.3484C487.919 40.3484 481.293 40.2087 475.641 41.053C472.027 41.593 472.542 40.5172 471.751 41.6165C471.291 42.2555 468.647 45.4487 469.746 45.9431C472.586 47.2209 473.275 50.5665 487.51 49.3513C490.961 50.2731 483.563 49.5851 487.51 50.3758C494.202 51.7164 504 53.4513 504 55.4469C504 56.5142 496.935 58.9814 496.935 60.6654C493.616 61.1279 475.395 60.6654 471.751 60.6654" stroke="#F2A341" stroke-width="2" strokeLinecap="round"/>
<path d="M503.055 40.3359C505.063 40.4764 503.309 43.0181 502.904 43.3782C500.542 45.4781 495.774 47.048 488.858 48.0154C480.746 49.1501 474.264 50.832 470.734 53.2231C465.829 56.5455 476.044 60.871 488.783 60.871" stroke="#F2A341" stroke-width="2" strokeLinecap="round"/>
<path d="M304.659 3.48438C330.708 23.6474 367.177 67.754 304.659 82.8763" stroke="#FA0000" stroke-width="5"/>
<path d="M304.659 3.48438V82.8763" stroke="black" stroke-width="7"/>
<path d="M402.036 10.8984V67.2269C402.036 80.3556 391.393 90.9984 378.264 90.9984V90.9984C365.136 90.9984 354.493 80.3555 354.493 67.2268V10.8984" stroke="#F28B0C" stroke-width="7"/>
<path d="M403.701 2L390.979 25.7333" stroke="#F28B0C" stroke-width="7"/>
<path d="M414.692 25.6598L400.254 3.19105" stroke="#F28B0C" stroke-width="7"/>
<path d="M355.904 2L341.225 25.7333" stroke="#F28B0C" stroke-width="7"/>
<path d="M368.586 25.6598L351.926 3.19105" stroke="#F28B0C" stroke-width="7"/>
<path d="M109.037 10.8984V67.2269C109.037 80.3556 98.3943 90.9984 85.2657 90.9984V90.9984C72.137 90.9984 61.4941 80.3555 61.4941 67.2268V10.8984" stroke="#F28B0C" stroke-width="7"/>
<path d="M110.703 2L97.9807 25.7333" stroke="#F28B0C" stroke-width="7"/>
<path d="M121.694 25.6598L107.255 3.19105" stroke="#F28B0C" stroke-width="7"/>
<path d="M62.9052 2L48.2262 25.7333" stroke="#F28B0C" stroke-width="7"/>
<path d="M75.5876 25.6598L58.9276 3.19105" stroke="#F28B0C" stroke-width="7"/>
</svg>
