<!DOCTYPE svg PUBLIC "-//W3C//DTD SVG 1.1//EN" "http://www.w3.org/Graphics/SVG/1.1/DTD/svg11.dtd">

<!-- Uploaded to: SVG Repo, www.svgrepo.com, Transformed by: SVG Repo Mixer Tools -->
<svg fill="#cc1e1e" height="64px" width="64px" version="1.1" id="Layer_1" xmlns="http://www.w3.org/2000/svg" xmlns:xlink="http://www.w3.org/1999/xlink" viewBox="0 0 512 512" xml:space="preserve" stroke="#cc1e1e">

<g id="SVGRepo_bgCarrier" stroke-width="0"/>

<g id="SVGRepo_tracerCarrier" stroke-linecap="round" strokeLinejoin="round" strokeWidth="2"="round"/>

<g id="SVGRepo_iconCarrier"> <g transform="translate(1 1)"> <g> <g> <path d="M135.533,336.067c5.12,0,8.533-3.413,8.533-8.533S140.653,319,135.533,319S127,322.413,127,327.533 S130.413,336.067,135.533,336.067z"/> <path d="M135.533,310.467c5.12,0,8.533-3.413,8.533-8.533c0-9.387,7.68-17.067,17.067-17.067c5.12,0,8.533-3.413,8.533-8.533 s-3.413-8.533-8.533-8.533C142.36,267.8,127,283.16,127,301.933C127,307.053,130.413,310.467,135.533,310.467z"/> <path d="M169.667,395.8C216.6,395.8,255,357.4,255,310.467s-38.4-85.333-85.333-85.333s-85.333,38.4-85.333,85.333 S122.733,395.8,169.667,395.8z M169.667,242.2c37.547,0,68.267,30.72,68.267,68.267s-30.72,68.267-68.267,68.267 c-37.547,0-68.267-30.72-68.267-68.267S132.12,242.2,169.667,242.2z"/> <path d="M451.267,173.933h-9.359c-3.86-19.681-20.878-34.133-41.841-34.133h-28.16c-6.827,0-13.653-2.56-17.92-6.827L348.013,127 c-7.68-8.533-18.773-12.8-29.867-12.8h-29.013v-13.653L303.64,86.04c3.413-3.413,3.413-8.533,0-11.947s-8.533-3.413-11.947,0 L272.067,93.72v20.48h-34.133V93.72l-19.627-19.627c-3.413-3.413-8.533-3.413-11.947,0s-3.413,8.533,0,11.947l14.507,14.507 V114.2h-28.16c-11.947,0-22.187,4.267-30.72,11.947l-5.973,5.973c-4.267,5.12-11.093,7.68-17.92,7.68h-28.16 c-20.963,0-37.981,14.452-41.841,34.133h-9.359C25.453,173.933-1,200.387-1,233.667v153.6C-1,420.547,25.453,447,58.733,447 h281.6h110.933c33.28,0,59.733-26.453,59.733-59.733V370.2v-93.867V242.2v-8.533C511,200.387,484.547,173.933,451.267,173.933z M493.933,267.8h-25.6c-5.12,0-8.533-3.413-8.533-8.533c0-5.12,3.413-8.533,8.533-8.533h25.6V267.8z M109.933,157.72h29.013 c11.093,0,22.187-5.12,29.867-12.8l5.973-5.973c4.267-5.12,11.093-7.68,17.92-7.68h124.587c6.827,0,13.653,2.56,19.627,6.827 l5.973,5.973c7.68,8.533,18.773,12.8,29.867,12.8h28.16c11.093,0,20.48,6.827,23.893,17.067H86.04 C89.453,163.693,98.84,156.867,109.933,157.72z M58.733,429.933c-23.893,0-42.667-18.773-42.667-42.667v-153.6 C16.067,209.773,34.84,191,58.733,191H75.8h27.989c-42.038,23.342-70.656,68.221-70.656,119.467s28.617,96.125,70.656,119.467 H58.733z M169.667,191c65.707,0,119.467,53.76,119.467,119.467s-53.76,119.467-119.467,119.467S50.2,376.173,50.2,310.467 S103.96,191,169.667,191z M306.2,310.467c0-51.245-28.617-96.125-70.656-119.467H331.8v51.2c0,5.12,3.413,8.533,8.533,8.533 c5.12,0,8.533-3.413,8.533-8.533V191h17.067v34.133c0,5.12,3.413,8.533,8.533,8.533s8.533-3.413,8.533-8.533V191h17.067v17.067 c0,5.12,3.413,8.533,8.533,8.533s8.533-3.413,8.533-8.533V191H434.2h17.067c23.893,0,42.667,18.773,42.667,42.667h-25.6 c-14.507,0-25.6,11.093-25.6,25.6c0,14.507,11.093,25.6,25.6,25.6h25.6v76.8H408.6c-39.779,0-72.128,29.674-76.326,68.267h-96.73 C277.583,406.592,306.2,361.712,306.2,310.467z M493.933,387.267c0,23.893-18.773,42.667-42.667,42.667H349.72 c4.267-29.013,29.013-51.2,58.88-51.2h85.333V387.267z"/> <path d="M391.533,404.333c0,5.12,3.413,8.533,8.533,8.533H459.8c5.12,0,8.533-3.413,8.533-8.533c0-5.12-3.413-8.533-8.533-8.533 h-59.733C394.947,395.8,391.533,399.213,391.533,404.333z"/> <path d="M246.467,80.067h17.067c5.12,0,8.533-3.413,8.533-8.533S268.653,63,263.533,63h-17.067c-5.12,0-8.533,3.413-8.533,8.533 S241.347,80.067,246.467,80.067z"/> <path d="M365.933,344.6h34.133c14.507,0,25.6-11.093,25.6-25.6s-11.093-25.6-25.6-25.6h-34.133c-14.507,0-25.6,11.093-25.6,25.6 S351.427,344.6,365.933,344.6z M365.933,310.467h34.133c5.12,0,8.533,3.413,8.533,8.533s-3.413,8.533-8.533,8.533h-34.133 c-5.12,0-8.533-3.413-8.533-8.533S360.813,310.467,365.933,310.467z"/> </g> </g> </g> </g>

</svg>